<svg width="30" height="30" viewBox="0 0 30 30" fill="none" xmlns="http://www.w3.org/2000/svg">
<path d="M14.385 18.3253L1.55196 17.1745C0.790691 17.1124 0.302843 16.8019 0.0884199 16.2431C-0.126003 15.6843 0.0495646 15.212 0.615123 14.8262L21.7308 0.224514C21.8286 0.149121 21.9409 0.0925772 22.0675 0.0548811C22.1956 0.0182937 22.3783 0 22.6158 0C23.0043 0 23.3109 0.12861 23.5354 0.385831C23.7613 0.64416 23.7635 0.915794 23.5418 1.20073L15.5031 11.7063L28.416 12.8588C29.1787 12.9198 29.6738 13.2247 29.9011 13.7735C30.1299 14.3212 29.9616 14.788 29.396 15.1738L8.28039 29.8087C8.18253 29.883 8.07028 29.9335 7.94364 29.9601C7.81556 29.9867 7.6328 30 7.39535 30C7.0068 30 6.71395 29.8714 6.51679 29.6142C6.31964 29.3558 6.31748 29.0942 6.51032 28.8292L14.385 18.3253ZM11.7946 25.0058L27.2892 14.4138L12.0278 13.0966L18.2878 4.93763L2.7241 15.5613L17.9337 16.9666L11.7946 25.0058Z" fill="#1DB954"/>
</svg>
