<svg width="30" height="30" viewBox="0 0 30 30" fill="none" xmlns="http://www.w3.org/2000/svg">
<path d="M10.2263 17.7687L6.25757 20.775C5.88882 21.0562 5.37007 21.0312 5.02632 20.7187L3.75132 19.5625C3.33257 19.1812 3.33257 18.5187 3.75132 18.1375L7.19507 15M10.2201 12.2375L10.2263 12.2312L19.3313 3.92625C19.3376 3.92 19.3501 3.91374 19.3563 3.90749C19.3813 3.88249 19.4001 3.86375 19.4251 3.85125C19.4313 3.83875 19.4438 3.8325 19.4501 3.82625C19.4876 3.80125 19.5251 3.77 19.5626 3.745C19.5688 3.73875 19.5751 3.7325 19.5813 3.7325C19.6188 3.7075 19.6501 3.68249 19.6876 3.66374H19.6938C19.7251 3.65124 19.7501 3.6325 19.7813 3.62625C19.8063 3.6075 19.8313 3.60124 19.8626 3.59499C19.8817 3.58296 19.9029 3.57449 19.9251 3.56999C19.9688 3.55749 20.0126 3.545 20.0563 3.53875C20.0626 3.5325 20.0751 3.53249 20.0813 3.53249L20.2251 3.51375C20.3563 3.50125 20.4938 3.50124 20.6251 3.53249C20.6376 3.53249 20.6501 3.5325 20.6688 3.53875C20.6876 3.545 20.7001 3.545 20.7126 3.55125C20.8001 3.57 20.8876 3.60124 20.9751 3.64499H20.9813L25.7438 5.93874C25.8001 5.96999 25.8563 6.00124 25.9126 6.03874C25.9688 6.07624 26.0188 6.11999 26.0688 6.16374H26.0751C26.0751 6.16374 26.0813 6.16374 26.0813 6.16999C26.0876 6.16999 26.0938 6.17624 26.1001 6.18249C26.1188 6.19499 26.1376 6.21374 26.1501 6.23249C26.1688 6.25124 26.1876 6.27624 26.2126 6.30749C26.2126 6.30749 26.2188 6.30749 26.2251 6.31374C26.2438 6.33249 26.2563 6.34499 26.2626 6.36374C26.2938 6.39499 26.3126 6.43249 26.3376 6.46999C26.3688 6.50749 26.3876 6.55124 26.4063 6.59499C26.4126 6.60749 26.4251 6.62624 26.4251 6.64499C26.4438 6.67624 26.4563 6.70749 26.4688 6.73874C26.473 6.74291 26.4751 6.74708 26.4751 6.75124L26.5126 6.86374C26.5251 6.90124 26.5313 6.94499 26.5376 6.98249L26.5563 7.09499C26.5626 7.14499 26.5626 7.18874 26.5626 7.23874V7.29499C26.5626 7.22624 26.5563 7.15749 26.5438 7.09499V7.08874M13.8694 15.0062V15L20.7751 9.76312L20.7876 9.75687" stroke="#1DB954" stroke-linecap="round" stroke-linejoin="round"/>
<path d="M20.7876 20.2431L20.7751 20.2369L13.8688 15V14.9938L10.2251 12.2313L6.25757 9.22563C5.88882 8.94438 5.37007 8.96938 5.02632 9.28188L3.75132 10.4381C3.33257 10.8194 3.33257 11.4819 3.75132 11.8631L7.19569 15L10.2201 17.7625L10.2263 17.7688L19.3313 26.0738H19.3376C19.3751 26.1175 19.4126 26.1488 19.4501 26.1738C19.5251 26.23 19.6001 26.2863 19.6876 26.33C19.6876 26.33 19.6876 26.3363 19.6938 26.3363C19.7751 26.3738 19.8626 26.405 19.9501 26.43C19.9938 26.4488 20.0376 26.4613 20.0813 26.4675C20.1688 26.48 20.2501 26.4925 20.3376 26.4925C20.5563 26.4988 20.7751 26.4488 20.9751 26.355H20.9813L25.7432 24.0613C25.7994 24.03 25.8557 23.9988 25.9119 23.9613C25.9682 23.9175 26.0307 23.8738 26.0807 23.83C26.1307 23.7863 26.1807 23.7363 26.2244 23.6925C26.4369 23.4363 26.5619 23.1113 26.5619 22.7613V22.705C26.5619 22.7738 26.5557 22.8425 26.5432 22.905V22.9113" stroke="#1DB954" stroke-linecap="round" stroke-linejoin="round"/>
<path d="M20.9831 26.3531C20.714 26.4824 20.4115 26.525 20.1172 26.4748C19.823 26.4246 19.5516 26.2843 19.3406 26.0731C19.8737 26.6062 20.785 26.2294 20.785 25.475V4.52499C20.785 3.77124 19.8737 3.39374 19.3412 3.92624C19.5523 3.71541 19.8236 3.57529 20.1177 3.52525C20.4118 3.47521 20.7142 3.5177 20.9831 3.64687L25.7443 5.93624C25.9894 6.05425 26.1962 6.23903 26.3409 6.46933C26.4857 6.69964 26.5624 6.96611 26.5625 7.23812V22.7625C26.5625 23.3175 26.2443 23.8237 25.7437 24.0644L20.9831 26.3531Z" fill="#006600" stroke="#1DB954" stroke-linecap="round" stroke-linejoin="round"/>
</svg>
