<svg width="30" height="25" viewBox="0 0 30 25" fill="none" xmlns="http://www.w3.org/2000/svg">
<path d="M6.22064 11.652C7.06867 12.0285 7.75226 12.8398 8.00699 13.9143L9.59987 20.6537C9.70078 21.0804 9.72653 21.5255 9.67564 21.9634C9.62475 22.4014 9.49822 22.8237 9.30328 23.2062C9.10834 23.5887 8.84881 23.9239 8.53953 24.1927C8.23024 24.4615 7.87726 24.6586 7.50075 24.7727C5.98967 25.231 4.37987 24.9905 3.02519 24.104C1.6705 23.2175 0.68179 21.7576 0.276365 20.0452L0.200591 19.7236C-0.176677 18.1257 -0.0181513 16.426 0.64555 14.9529C1.30925 13.4797 2.43104 12.3376 3.79424 11.747C3.92662 8.60202 5.11508 5.63342 7.11612 3.4495C9.11715 1.26558 11.7793 0.0316724 14.557 0.000601302C17.3348 -0.0304698 20.0178 1.14364 22.0565 3.28238C24.0952 5.42112 25.3351 8.36255 25.5222 11.504L25.6286 11.5351C27.1394 11.9946 28.4274 13.1153 29.2095 14.6507C29.9916 16.1862 30.2038 18.0109 29.7994 19.7236L29.7237 20.0452C29.3182 21.7576 28.3295 23.2175 26.9748 24.104C25.6202 24.9905 24.0104 25.231 22.4993 24.7727C22.1228 24.6586 21.7698 24.4615 21.4605 24.1927C21.1512 23.9239 20.8917 23.5887 20.6968 23.2062C20.5018 22.8237 20.3753 22.4014 20.3244 21.9634C20.2735 21.5255 20.2992 21.0804 20.4002 20.6537L21.993 13.9143C22.1784 13.134 22.5896 12.4926 23.1248 12.0559C23.0639 9.59399 22.1699 7.25296 20.6281 5.51754C19.0863 3.78213 17.0147 2.78527 14.8423 2.73337C12.6699 2.68147 10.5632 3.57851 8.95819 5.23874C7.35324 6.89898 6.37307 9.19523 6.22064 11.652ZM5.67087 14.6234C5.65236 14.5441 5.6202 14.4698 5.57625 14.4048C5.5323 14.3397 5.47742 14.2851 5.41478 14.2442C5.35214 14.2032 5.28298 14.1768 5.21127 14.1663C5.13956 14.1557 5.06673 14.1614 4.99696 14.183C4.10576 14.4545 3.34608 15.1158 2.88478 16.0217C2.42348 16.9277 2.29829 18.0041 2.53671 19.0146L2.61248 19.3362C2.85167 20.3467 3.43501 21.2082 4.23431 21.7314C5.03361 22.2546 5.98348 22.3968 6.87521 22.1266C6.9451 22.1056 7.01064 22.0692 7.06806 22.0194C7.12547 21.9695 7.17362 21.9074 7.20973 21.8364C7.24585 21.7654 7.26922 21.687 7.27849 21.6057C7.28776 21.5244 7.28275 21.4418 7.26375 21.3628L5.67087 14.6234ZM25.0015 14.183C24.9319 14.1617 24.8593 14.1561 24.7879 14.1666C24.7165 14.1772 24.6475 14.2036 24.5851 14.2443C24.5227 14.285 24.4679 14.3393 24.424 14.404C24.3801 14.4688 24.3479 14.5427 24.3292 14.6215L22.7363 21.3628C22.7173 21.4418 22.7123 21.5244 22.7215 21.6057C22.7308 21.687 22.7542 21.7654 22.7903 21.8364C22.8264 21.9074 22.8746 21.9695 22.932 22.0194C22.9894 22.0692 23.0549 22.1056 23.1248 22.1266C24.0165 22.3968 24.9664 22.2546 25.7657 21.7314C26.565 21.2082 27.1484 20.3467 27.3876 19.3362L27.4633 19.0146C27.7017 18.0041 27.5765 16.9277 27.1152 16.0217C26.6539 15.1158 25.8927 14.4545 25.0015 14.183Z" fill="#1DB954"/>
</svg>
