<svg width="30" height="30" viewBox="0 0 30 30" fill="none" xmlns="http://www.w3.org/2000/svg">
<path d="M30 4.6875C30 4.94141 29.9072 5.16113 29.7217 5.34668L25.5029 9.56543C25.3174 9.75098 25.0977 9.84375 24.8438 9.84375C24.5605 9.84375 24.3262 9.73633 24.1406 9.52148L16.7871 16.875H17.8125C18.0664 16.875 18.2861 16.9678 18.4717 17.1533C18.6572 17.3389 18.75 17.5586 18.75 17.8125V19.6875C18.75 20.0781 18.6768 20.4443 18.5303 20.7861C18.3838 21.1279 18.1836 21.4258 17.9297 21.6797C17.6758 21.9336 17.3779 22.1338 17.0361 22.2803C16.6943 22.4268 16.3281 22.5 15.9375 22.5C15.6836 22.5 15.4639 22.5928 15.2783 22.7783C15.0928 22.9639 15 23.1836 15 23.4375C15 24.3457 14.8291 25.1953 14.4873 25.9863C14.1455 26.7773 13.6768 27.4756 13.0811 28.0811C12.4854 28.6865 11.792 29.1553 11.001 29.4873C10.21 29.8193 9.35547 29.9902 8.4375 30C7.27539 30 6.18164 29.7803 5.15625 29.3408C4.13086 28.9014 3.2373 28.2959 2.47559 27.5244C1.71387 26.7529 1.11328 25.8594 0.673828 24.8438C0.234375 23.8281 0.00976562 22.7344 0 21.5625C0 20.6543 0.170898 19.8047 0.512695 19.0137C0.854492 18.2227 1.32324 17.5244 1.91895 16.9189C2.51465 16.3135 3.20801 15.8447 3.99902 15.5127C4.79004 15.1807 5.64453 15.0098 6.5625 15C6.81641 15 7.03613 14.9072 7.22168 14.7217C7.40723 14.5361 7.5 14.3164 7.5 14.0625C7.5 13.5449 7.59766 13.0615 7.79297 12.6123C7.98828 12.1631 8.25684 11.7627 8.59863 11.4111C8.94043 11.0596 9.33594 10.791 9.78516 10.6055C10.2344 10.4199 10.7227 10.3223 11.25 10.3125C11.8945 10.3125 12.4805 10.459 13.0078 10.752C13.5352 11.0449 13.9844 11.4551 14.3555 11.9824L20.4785 5.85938C20.2637 5.67383 20.1562 5.43945 20.1562 5.15625C20.1562 4.90234 20.249 4.68262 20.4346 4.49707L24.6533 0.27832C24.8389 0.0927734 25.0586 0 25.3125 0C25.5664 0 25.7861 0.0927734 25.9717 0.27832L29.7217 4.02832C29.9072 4.21387 30 4.43359 30 4.6875ZM16.875 18.75H14.5312C14.2773 18.75 14.0576 18.6572 13.8721 18.4717L11.5283 16.1279C11.3428 15.9424 11.25 15.7227 11.25 15.4688C11.25 15.2148 11.3428 14.9951 11.5283 14.8096L12.9785 13.3594C12.8418 13.0078 12.6172 12.7246 12.3047 12.5098C11.9922 12.2949 11.6406 12.1875 11.25 12.1875C10.9863 12.1875 10.7422 12.2363 10.5176 12.334C10.293 12.4316 10.0977 12.5635 9.93164 12.7295C9.76562 12.8955 9.62891 13.0957 9.52148 13.3301C9.41406 13.5645 9.36523 13.8086 9.375 14.0625C9.375 14.4531 9.30176 14.8193 9.15527 15.1611C9.00879 15.5029 8.80859 15.8008 8.55469 16.0547C8.30078 16.3086 8.00293 16.5088 7.66113 16.6553C7.31934 16.8018 6.95312 16.875 6.5625 16.875C5.91797 16.875 5.3125 16.9971 4.74609 17.2412C4.17969 17.4854 3.68164 17.8223 3.25195 18.252C2.82227 18.6816 2.48535 19.1797 2.24121 19.7461C1.99707 20.3125 1.875 20.918 1.875 21.5625C1.875 22.4707 2.0459 23.3203 2.3877 24.1113C2.72949 24.9023 3.19824 25.5957 3.79395 26.1914C4.38965 26.7871 5.08301 27.2559 5.87402 27.5977C6.66504 27.9395 7.51953 28.1152 8.4375 28.125C9.08203 28.125 9.6875 28.0029 10.2539 27.7588C10.8203 27.5146 11.3135 27.1826 11.7334 26.7627C12.1533 26.3428 12.4902 25.8447 12.7441 25.2686C12.998 24.6924 13.125 24.082 13.125 23.4375C13.125 23.0469 13.1982 22.6807 13.3447 22.3389C13.4912 21.9971 13.6914 21.6992 13.9453 21.4453C14.1992 21.1914 14.4971 20.9912 14.8389 20.8447C15.1807 20.6982 15.5469 20.625 15.9375 20.625C16.1914 20.625 16.4111 20.5322 16.5967 20.3467C16.7822 20.1611 16.875 19.9414 16.875 19.6875V18.75ZM14.5312 16.4941L22.8223 8.20312L21.7969 7.17773L13.5059 15.4688L14.5312 16.4941ZM24.8438 7.58789L27.7441 4.6875L25.3125 2.25586L22.4121 5.15625L24.8438 7.58789ZM5.2002 21.5186L6.51855 20.2002L9.7998 23.4814L8.48145 24.7998L5.2002 21.5186ZM8.0127 18.7061L9.33105 17.3877L12.6123 20.6689L11.2939 21.9873L8.0127 18.7061Z" fill="#1DB954"/>
</svg>
