<svg width="26" height="25" viewBox="0 0 26 25" fill="none" xmlns="http://www.w3.org/2000/svg">
<path d="M24.6636 22.8886L20.0261 18.2886C21.8263 16.0441 22.698 13.1952 22.4621 10.3278C22.2263 7.46025 20.9007 4.7921 18.758 2.87193C16.6153 0.951758 13.8184 -0.0744868 10.9423 0.0042137C8.06617 0.0829142 5.32953 1.26058 3.29505 3.29505C1.26058 5.32953 0.0829142 8.06617 0.0042137 10.9423C-0.0744868 13.8184 0.951758 16.6153 2.87193 18.758C4.7921 20.9007 7.46025 22.2263 10.3278 22.4621C13.1952 22.698 16.0441 21.8263 18.2886 20.0261L22.8886 24.6261C23.0048 24.7433 23.1431 24.8363 23.2954 24.8997C23.4477 24.9632 23.6111 24.9959 23.7761 24.9959C23.9411 24.9959 24.1045 24.9632 24.2568 24.8997C24.4092 24.8363 24.5474 24.7433 24.6636 24.6261C24.8889 24.393 25.0149 24.0815 25.0149 23.7574C25.0149 23.4332 24.8889 23.1217 24.6636 22.8886ZM11.2761 20.0261C9.54554 20.0261 7.85382 19.5129 6.41489 18.5515C4.97596 17.59 3.85445 16.2235 3.19218 14.6246C2.52991 13.0258 2.35663 11.2664 2.69425 9.56909C3.03187 7.87175 3.86523 6.31265 5.08894 5.08894C6.31265 3.86523 7.87175 3.03187 9.56909 2.69425C11.2664 2.35663 13.0258 2.52991 14.6246 3.19218C16.2235 3.85445 17.59 4.97596 18.5515 6.41489C19.5129 7.85382 20.0261 9.54554 20.0261 11.2761C20.0261 13.5968 19.1043 15.8224 17.4633 17.4633C15.8224 19.1043 13.5968 20.0261 11.2761 20.0261Z" fill="#AAAAAA"/>
</svg>
