<svg width="25" height="23" viewBox="0 0 25 23" fill="none" xmlns="http://www.w3.org/2000/svg">
<path d="M18.125 0.5C21.6989 0.5 24.5 3.30114 24.5 6.875C24.5 9.07327 23.5163 11.1074 21.6836 13.3496C19.8454 15.5985 17.2058 17.995 13.9775 20.9287L12.501 22.2617L11.0244 20.918L11.0234 20.917L8.71582 18.8154C6.52502 16.8014 4.69521 15.0334 3.31641 13.3477C1.48385 11.1072 0.5 9.07324 0.5 6.875C0.5 3.30114 3.30114 0.5 6.875 0.5C8.89853 0.5 10.8484 1.44442 12.1191 2.93652L12.5 3.38379L12.8809 2.93652C14.1516 1.44442 16.1015 0.5 18.125 0.5Z" stroke="#AAAAAA"/>
</svg>
